<?xml version="1.0" standalone="no"?>
<!DOCTYPE svg PUBLIC "-//W3C//DTD SVG 20010904//EN"
 "http://www.w3.org/TR/2001/REC-SVG-20010904/DTD/svg10.dtd">
<svg version="1.0" xmlns="http://www.w3.org/2000/svg"
 width="500.000000pt" height="500.000000pt" viewBox="0 0 500.000000 500.000000"
 preserveAspectRatio="xMidYMid meet">

<g transform="translate(0.000000,500.000000) scale(0.100000,-0.100000)"
fill="#000000" stroke="none">
<path d="M0 2500 l0 -2500 2500 0 2500 0 0 2500 0 2500 -2500 0 -2500 0 0
-2500z m2635 1645 c123 -33 246 -121 329 -238 94 -132 140 -261 162 -452 22
-194 96 -392 222 -599 25 -42 37 -75 40 -111 4 -47 -1 -61 -56 -167 -116 -222
-158 -277 -278 -353 -71 -46 -345 -204 -466 -269 l-88 -48 -87 48 c-163 88
-418 237 -490 285 -100 68 -146 128 -259 348 -42 80 -49 102 -49 150 1 50 7
66 55 145 111 184 190 400 205 561 28 307 246 600 515 692 77 27 162 29 245 8z
m-1156 -41 c29 -37 26 -70 -9 -106 -26 -25 -36 -29 -63 -24 -97 19 -85 156 14
156 29 0 42 -6 58 -26z m2161 6 c30 -30 30 -83 -1 -114 -39 -41 -119 -17 -133
40 -7 26 15 79 36 87 31 13 79 6 98 -13z m-2059 -152 l59 -52 -32 -33 c-29
-30 -58 -43 -58 -27 0 3 15 25 33 48 l32 41 -40 -32 c-50 -41 -73 -28 -30 17
16 16 24 30 19 30 -6 0 -21 -11 -34 -25 -28 -29 -54 -18 -28 12 28 33 31 48 5
24 -37 -33 -54 -17 -20 19 16 16 29 29 31 30 2 0 30 -23 63 -52z m1935 22 c41
-35 27 -50 -18 -19 l-31 23 22 -31 c32 -43 17 -63 -20 -27 -34 32 -39 21 -7
-13 34 -37 9 -46 -32 -12 l-34 29 39 40 c21 22 41 40 43 40 2 0 19 -13 38 -30z
m-73 -432 l-27 -29 -183 183 -183 182 27 28 27 29 183 -183 183 -182 -27 -28z
m-1515 359 l21 -23 -182 -182 -183 -183 -24 26 -24 26 179 179 c99 99 182 180
186 180 3 0 15 -10 27 -23z m1494 -14 c29 -28 37 -53 16 -53 -7 0 -27 14 -45
32 -42 41 -43 30 -2 -17 44 -49 25 -63 -24 -18 l-39 35 23 24 c29 30 37 30 71
-3z m-1757 -14 c9 -14 -67 -80 -79 -68 -6 5 3 22 24 44 36 37 45 41 55 24z m6
-73 c-55 -54 -73 -37 -24 22 29 35 38 40 50 31 12 -11 8 -19 -26 -53z m1686
22 c31 -30 43 -58 25 -58 -5 0 -27 16 -50 36 -51 44 -54 37 -6 -16 51 -56 33
-73 -22 -19 l-44 43 22 23 c28 30 36 29 75 -9z m-1621 -9 c3 -6 -12 -30 -35
-52 -32 -33 -43 -39 -53 -29 -9 9 -4 21 27 52 42 43 50 46 61 29z m188 -48
c16 -18 16 -21 1 -52 -32 -60 -55 -142 -66 -232 l-12 -89 -83 87 c-46 48 -84
90 -84 94 0 11 204 211 216 211 6 0 19 -9 28 -19z m1299 -89 l107 -107 -90
-90 -90 -90 0 35 c0 56 -28 199 -52 267 -18 51 -19 65 -8 77 7 9 15 16 19 16
3 0 55 -48 114 -108z m-1428 -1356 c23 -28 65 -67 94 -85 l53 -35 -34 -28
c-77 -63 -366 -203 -384 -185 -18 17 103 274 174 371 32 44 37 47 47 31 5 -10
28 -41 50 -69z m1566 -48 c38 -65 119 -253 119 -277 0 -17 -10 -14 -115 28
-96 40 -227 112 -275 152 l-25 21 28 22 c70 53 119 101 144 142 l28 45 28 -33
c16 -18 46 -63 68 -100z m-1977 -364 c11 -28 6 -150 -6 -162 -8 -8 -55 -12
-145 -12 l-133 0 0 -50 0 -50 93 0 c59 0 97 -4 105 -12 16 -16 16 -150 0 -166
-8 -8 -46 -12 -105 -12 l-92 0 -3 -112 -3 -113 -105 0 -105 0 -3 340 c-1 187
0 346 3 352 3 10 62 13 249 13 213 0 245 -2 250 -16z m593 -10 c15 -12 37 -36
48 -55 34 -58 23 -204 -17 -230 -5 -3 7 -15 28 -26 64 -33 75 -66 72 -228 l-3
-140 -99 -3 c-62 -2 -103 1 -110 8 -6 6 -13 57 -16 113 l-5 102 -82 3 -82 3
-3 -113 -3 -113 -105 0 -105 0 -3 340 c-1 187 0 346 3 353 4 10 51 12 229 10
210 -3 226 -4 253 -24z m469 11 c25 -19 84 -19 112 0 16 12 42 15 104 13 l83
-3 3 -80 c2 -66 0 -82 -14 -92 -13 -9 -60 -13 -156 -13 l-138 0 0 -35 0 -35
99 0 c55 0 106 -3 115 -6 23 -9 23 -159 0 -168 -9 -3 -60 -6 -115 -6 l-99 0 0
-40 0 -40 144 0 c111 0 146 -3 155 -14 8 -9 11 -43 9 -93 l-3 -78 -260 0 -260
0 -3 340 c-1 187 0 346 3 352 7 20 195 18 221 -2z m604 2 c8 -7 58 -61 110
-120 l95 -109 5 119 5 118 94 3 c60 2 98 -1 107 -9 21 -17 21 -671 0 -688 -9
-8 -47 -11 -107 -9 l-94 3 -5 77 -5 77 -80 97 -80 97 -3 -163 c-1 -103 -7
-169 -14 -177 -8 -10 -36 -13 -107 -11 l-96 3 -3 340 c-1 187 0 346 3 352 6
17 154 17 175 0z m1105 -82 l0 -90 -87 -3 -88 -3 -2 -257 -3 -257 -110 0 -110
0 -3 257 -2 257 -88 3 -87 3 -3 79 c-2 44 -1 85 2 93 5 11 59 13 293 11 l288
-3 0 -90z m-2041 -831 c9 -3 16 -12 16 -20 0 -10 -6 -11 -26 -3 -55 20 -99
-45 -58 -86 23 -22 58 -15 62 13 5 30 32 29 32 -3 0 -48 -75 -61 -115 -20 -14
13 -25 36 -25 50 0 51 63 89 114 69z m181 -56 c15 -35 29 -69 32 -75 3 -7 -2
-13 -10 -13 -8 0 -17 7 -21 15 -3 10 -19 15 -45 15 -25 0 -41 -5 -45 -15 -9
-24 -28 -18 -21 6 17 53 58 129 69 129 8 0 26 -28 41 -62z m127 17 c12 -25 25
-45 28 -45 3 0 16 20 28 45 34 71 52 60 52 -30 0 -85 -17 -103 -22 -22 l-3 52
-23 -42 c-12 -24 -27 -43 -32 -43 -5 0 -18 17 -29 38 l-20 37 -1 -47 c0 -36
-4 -48 -15 -48 -12 0 -15 15 -15 75 0 90 18 101 52 30z m198 -30 c0 -60 -3
-75 -15 -75 -12 0 -15 15 -15 75 0 60 3 75 15 75 12 0 15 -15 15 -75z m123 23
l37 -52 0 52 c0 40 4 52 15 52 12 0 15 -15 15 -75 0 -93 -12 -97 -67 -23 l-38
53 -3 -53 c-5 -80 -22 -62 -22 23 0 91 10 95 63 23z m228 41 c11 -5 17 -14 14
-20 -4 -6 -13 -5 -25 1 -27 14 -37 13 -60 -10 -27 -27 -25 -56 5 -76 29 -19
65 -10 65 17 0 10 5 19 10 19 17 0 12 -57 -6 -64 -45 -17 -90 -3 -109 35 -35
66 39 134 106 98z"/>
<path d="M2450 4109 c-162 -32 -358 -206 -458 -405 -41 -81 -60 -150 -72 -264
-19 -173 -82 -350 -200 -560 -77 -137 -77 -148 -4 -291 89 -175 144 -251 211
-296 73 -50 236 -146 426 -252 l148 -82 112 62 c372 206 501 289 550 356 20
27 68 108 107 181 94 172 94 181 12 322 -113 193 -183 393 -202 571 -22 222
-95 385 -229 517 -113 112 -271 167 -401 141z m157 -239 c18 -10 60 -54 95
-96 35 -43 97 -117 139 -165 112 -127 159 -199 224 -337 71 -151 85 -205 83
-307 l-1 -80 -7 95 c-8 123 -16 149 -99 315 -50 100 -89 163 -138 222 -37 45
-97 117 -133 160 -35 43 -92 106 -126 141 -71 73 -98 78 -182 36 -72 -36 -134
-108 -284 -333 -190 -283 -264 -451 -278 -626 l-8 -100 2 100 c3 87 8 113 41
200 21 55 56 136 78 180 56 112 288 455 352 521 87 88 175 116 242 74z m-7
-60 c15 -11 52 -53 82 -92 29 -40 84 -109 122 -153 115 -134 143 -176 208
-316 l63 -134 3 -114 c4 -102 -22 -351 -34 -338 -3 2 2 57 11 121 19 147 19
236 0 308 -23 91 -129 296 -190 368 -30 36 -98 118 -151 183 -118 145 -141
167 -176 167 -82 0 -139 -58 -303 -311 -134 -205 -193 -315 -236 -441 -30 -84
-30 -234 -1 -373 12 -54 20 -101 18 -103 -2 -2 -14 39 -26 90 -31 126 -37 284
-16 367 25 99 123 289 251 486 118 183 184 262 239 289 44 22 102 20 136 -4z
m76 -227 c46 -37 150 -161 208 -249 38 -57 46 -77 40 -98 -4 -17 -2 -26 6 -26
7 0 9 -8 5 -20 -3 -11 -4 -20 -1 -20 3 0 10 15 16 33 10 31 10 31 4 -8 -3 -22
-5 -50 -5 -62 0 -15 -9 -28 -29 -38 -30 -15 -59 -55 -41 -55 5 0 12 6 14 13
10 24 27 -17 27 -65 0 -38 -5 -50 -26 -67 -16 -12 -42 -21 -63 -21 -42 0 -108
-29 -133 -56 -19 -22 -43 -78 -29 -69 5 3 12 -3 14 -12 2 -10 3 -8 2 4 -1 12
2 20 6 17 5 -3 9 -43 9 -89 0 -68 -3 -84 -17 -89 -14 -6 -14 -8 5 -22 12 -8
22 -20 22 -26 0 -6 -6 -6 -16 2 -13 12 -14 10 -3 -14 10 -22 10 -29 -3 -42
-14 -14 -17 -11 -28 33 -10 37 -15 43 -18 25 -2 -13 1 -36 7 -52 5 -16 6 -32
2 -35 -5 -2 -11 8 -14 23 -8 40 -40 77 -60 69 -10 -4 -17 -14 -17 -24 0 -15 2
-15 9 -4 12 19 34 2 52 -40 10 -26 10 -32 -2 -40 -23 -15 -39 -10 -49 14 -8
18 -9 17 -4 -10 3 -18 1 -33 -4 -33 -5 0 -12 19 -15 42 -7 51 -46 95 -74 83
-17 -8 -16 -9 4 -12 27 -5 40 -20 48 -58 5 -23 4 -26 -4 -15 -8 12 -10 8 -8
-15 2 -27 -1 -30 -29 -33 -31 -3 -32 -2 -38 52 -4 31 -12 59 -18 62 -8 5 -9
-10 -4 -49 3 -32 4 -57 1 -57 -3 0 -16 7 -30 16 -23 15 -23 17 -10 62 18 59
10 68 -13 14 -9 -23 -21 -40 -27 -38 -6 2 -9 29 -7 60 1 37 -1 55 -8 51 -5 -3
-10 -15 -10 -26 0 -11 -4 -17 -10 -14 -5 3 -10 -3 -10 -15 0 -12 -4 -19 -9
-16 -5 3 -9 75 -9 160 0 85 -3 160 -8 167 -4 8 -3 9 5 5 6 -4 20 -24 31 -44
22 -43 27 -27 6 22 -21 51 -58 74 -132 81 -86 10 -114 32 -113 88 l2 42 8 -40
c7 -35 7 -33 4 15 -2 30 -7 66 -11 79 -5 17 -4 22 4 17 15 -9 15 -1 2 25 -9
16 -4 28 27 67 55 69 55 70 48 41 -6 -25 16 -99 30 -99 3 0 1 9 -5 19 -18 35
-11 47 9 15 19 -31 64 -54 105 -54 12 0 27 -5 33 -11 8 -8 22 -5 51 10 22 11
43 25 47 31 10 17 37 11 63 -12 l24 -23 18 23 c10 12 23 22 29 22 17 0 13 15
-9 35 -11 10 -23 37 -27 59 l-6 40 -14 -46 c-14 -48 -43 -85 -43 -54 0 9 -4
16 -10 16 -5 0 -10 -9 -10 -20 0 -32 -28 -23 -74 24 -24 25 -55 48 -70 52 -14
3 -24 10 -21 14 3 4 -13 15 -35 24 -22 9 -40 19 -40 22 0 20 164 220 188 229
9 3 29 -4 45 -16 22 -16 39 -20 66 -16 l36 4 -3 -37 c-2 -21 1 -41 7 -44 7 -5
11 4 11 24 0 30 24 100 34 100 3 0 3 -15 1 -32 -4 -29 -4 -30 4 -7 13 40 31
69 42 69 5 0 26 -12 45 -27z m-341 -374 c14 -42 -45 -66 -61 -24 -10 25 4 45
30 45 16 0 27 -7 31 -21z m802 -366 c-3 -10 -5 -4 -5 12 0 17 2 24 5 18 2 -7
2 -21 0 -30z m-10 -55 c-3 -7 -5 -2 -5 12 0 14 2 19 5 13 2 -7 2 -19 0 -25z
m-1220 -35 c-3 -10 -5 -4 -5 12 0 17 2 24 5 18 2 -7 2 -21 0 -30z m1210 -5
c-3 -8 -6 -5 -6 6 -1 11 2 17 5 13 3 -3 4 -12 1 -19z m-1200 -40 c-3 -8 -6 -5
-6 6 -1 11 2 17 5 13 3 -3 4 -12 1 -19z m1120 -90 c-3 -7 -5 -2 -5 12 0 14 2
19 5 13 2 -7 2 -19 0 -25z m-10 -40 c-3 -8 -6 -5 -6 6 -1 11 2 17 5 13 3 -3 4
-12 1 -19z m-10 -40 c-3 -8 -6 -5 -6 6 -1 11 2 17 5 13 3 -3 4 -12 1 -19z
m-963 -144 c3 -8 2 -12 -4 -9 -6 3 -10 10 -10 16 0 14 7 11 14 -7z m64 -96
c13 -15 53 -47 90 -72 37 -25 115 -83 175 -130 59 -47 112 -86 117 -86 24 0
429 281 464 322 21 23 29 30 18 13 -11 -16 -33 -42 -49 -57 -26 -24 -405 -285
-428 -294 -5 -2 -46 25 -90 62 -44 36 -123 96 -175 134 -101 73 -137 107 -164
155 -17 30 -17 30 1 5 10 -13 28 -37 41 -52z m359 -97 c9 -36 43 -35 56 2 9
23 32 17 32 -9 0 -11 -7 -19 -17 -19 -26 0 -23 -19 4 -25 16 -4 23 -13 23 -30
0 -35 -22 -36 -40 -1 -8 17 -22 31 -30 31 -8 0 -22 -14 -30 -31 -18 -35 -40
-34 -40 1 0 17 7 26 23 30 23 5 27 25 5 25 -18 0 -26 13 -20 30 9 21 28 19 34
-4z"/>
<path d="M2718 3279 c-21 -11 -38 -22 -38 -24 0 -3 14 2 31 10 17 9 35 15 42
12 6 -2 -9 -11 -33 -21 -24 -10 -59 -31 -77 -47 -19 -16 -40 -29 -48 -29 -18
0 -18 1 -4 -39 6 -18 18 -31 28 -31 9 0 23 -6 30 -12 11 -10 13 -10 7 0 -5 9
7 12 51 12 41 0 54 -3 43 -10 -8 -5 -11 -10 -6 -10 19 0 74 51 90 83 25 54 21
101 -9 115 -36 17 -64 14 -107 -9z m22 -89 c0 -11 -6 -20 -14 -20 -18 0 -29
16 -21 30 11 18 35 11 35 -10z"/>
<path d="M2710 3190 c0 -5 5 -10 10 -10 6 0 10 5 10 10 0 6 -4 10 -10 10 -5 0
-10 -4 -10 -10z"/>
<path d="M2461 3034 c-29 -37 -44 -96 -31 -128 5 -14 12 -26 14 -26 3 0 3 6 0
14 -4 11 0 13 14 9 14 -3 24 2 33 18 l12 23 8 -22 c12 -31 47 -29 55 3 8 31 0
60 -26 103 -24 39 -51 41 -79 6z"/>
<path d="M2295 3210 c-3 -5 -1 -18 4 -27 9 -16 10 -14 11 10 0 28 -5 34 -15
17z"/>
<path d="M1392 4078 c-18 -18 -14 -46 7 -58 25 -13 48 -4 56 21 12 38 -35 65
-63 37z"/>
<path d="M3557 4084 c-12 -12 -8 -51 7 -63 24 -20 58 4 54 37 -2 20 -9 28 -28
30 -14 2 -29 0 -33 -4z"/>
<path d="M1710 1690 l0 -61 52 3 c47 3 54 6 62 31 6 17 6 37 0 55 -8 24 -15
27 -62 30 l-52 3 0 -61z"/>
<path d="M2241 954 c-14 -31 -10 -37 17 -32 16 3 17 6 7 31 l-11 28 -13 -27z"/>
</g>
</svg>
